<svg id="Calque_1" data-name="Calque 1" xmlns="http://www.w3.org/2000/svg" xmlns:xlink="http://www.w3.org/1999/xlink" viewBox="0 0 844.72 170.08"><defs><style>.cls-1{fill:#9a9a9a;}.cls-2{fill:url(#Nouvelle_nuance_de_dégradé_9);}.cls-3{fill:#ea2839;}.cls-4{fill:#fff;}</style><linearGradient id="Nouvelle_nuance_de_dégradé_9" x1="355.75" y1="133.06" x2="831.97" y2="133.06" gradientUnits="userSpaceOnUse"><stop offset="0" stop-color="#9a9a9a"/><stop offset="1" stop-color="#fff"/></linearGradient></defs><title>HGO_G-VYV_C-Mut-Porte Orient_RVB</title><path class="cls-1" d="M208.2,133.86h3a2.81,2.81,0,0,1-2.92,2.89c-2.12,0-3.55-1.56-3.55-3.88s1.43-3.87,3.49-3.87a3.11,3.11,0,0,1,2.87,1.7l.1.16,1.18-.71-.08-.16a4.33,4.33,0,0,0-4-2.31,4.9,4.9,0,0,0-4.93,5.19,4.84,4.84,0,0,0,4.93,5.19,4.18,4.18,0,0,0,3.05-1.32l.18,1.16h1.07v-5.35H208.2Z"/><path class="cls-1" d="M227.34,131.08a3.22,3.22,0,0,0-3.29-3.23H219.8V137.9h1.37v-3.59h2.66l2.59,3.59H228l-2.74-3.77a3.44,3.44,0,0,0,2.06-3m-1.37,0a2,2,0,0,1-1.92,1.91h-2.88v-3.83h2.88a2,2,0,0,1,1.92,1.92"/><path class="cls-1" d="M238.81,127.68a4.9,4.9,0,0,0-4.93,5.19,4.94,4.94,0,1,0,9.86,0,4.85,4.85,0,0,0-4.93-5.19m0,9.07c-2.13,0-3.56-1.56-3.56-3.88s1.43-3.87,3.56-3.87,3.55,1.56,3.55,3.87-1.42,3.88-3.55,3.88"/><path class="cls-1" d="M257.9,133.8a2.8,2.8,0,1,1-5.6,0v-6h-1.37v6.2a4.17,4.17,0,0,0,8.34,0v-6.2H257.9Z"/><path class="cls-1" d="M271,127.85h-4V137.9h1.38v-3.4H271a3.33,3.33,0,1,0,0-6.65m2,3.32a1.88,1.88,0,0,1-2,2h-2.63v-4H271a1.89,1.89,0,0,1,2,2"/><polygon class="cls-1" points="288.41 129.16 288.41 127.85 282.19 127.85 282.19 137.9 288.41 137.9 288.41 136.58 283.56 136.58 283.56 133.35 288.14 133.35 288.14 132.03 283.56 132.03 283.56 129.16 288.41 129.16"/><path class="cls-1" d="M346,125.2c-3.79,0-4.71,4.09-6.26,10.83-2.16-1.39-.56-9.73-5.37-9.73a6.59,6.59,0,0,0-2.42.55c3.05,5.87,2.51,12.79,8.35,12.79a9.44,9.44,0,0,0,1.55-.13l6.06-14a8.88,8.88,0,0,0-1.91-.29"/><path class="cls-1" d="M307.45,136c-2.17-1.39-.57-9.73-5.38-9.73a6.59,6.59,0,0,0-2.42.55c3.06,5.87,2.51,12.79,8.35,12.79a9.44,9.44,0,0,0,1.55-.13l6.06-14a9.45,9.45,0,0,0-1.91-.29c-3.79,0-4.7,4.09-6.25,10.83"/><path class="cls-1" d="M323.44,136.3c-1.46-2.44-.51-10-4.91-10a6.35,6.35,0,0,0-2.41.55c2.71,5.21,2.5,11.25,6.51,12.54-.39,1.3-.94,2.53-1.77,2.53-.64,0-1.32-.21-2.05-.21-1.74,0-2.24.76-2.78,2.45a8.31,8.31,0,0,0,3.92,1.18c2.69,0,4.71-2.44,6.06-5.83l5.61-14a5.52,5.52,0,0,0-1.46-.29c-4.05,0-4.88,4.13-6.72,11.1"/><rect class="cls-2" x="355.75" y="132.22" width="476.22" height="1.69"/><path class="cls-3" d="M39.52,29.26c-16.79,9.56-26.08,29.63-25.3,49s10.61,37.58,24.36,51.24a67.42,67.42,0,0,0,14.9,11.48c7.74,4.23,16.49,6.35,25.25,7.3,33.71,3.68,68.8-10.47,90.43-36.46,7.34-8.81,13.36-19.49,13.24-31-.27-27.2-32.16-42.63-54.56-49.77C101.64,22.71,64.83,14.85,39.52,29.26Z"/><path class="cls-4" d="M38.51,107.12h1.71V110h3.31v-2.89h1.71v7.75H43.53v-3.35H40.22v3.35H38.51Z"/><path class="cls-4" d="M50.73,106.92a4.07,4.07,0,1,1,0,8.14,4.07,4.07,0,1,1,0-8.14Zm0,6.57a2.5,2.5,0,1,0-2.41-2.5A2.34,2.34,0,0,0,50.73,113.49Z"/><path class="cls-4" d="M60,109a1.64,1.64,0,0,0-1.23-.51c-.48,0-1.15.22-1.15.8,0,1.41,3.56.5,3.56,3.21,0,1.73-1.39,2.55-3,2.55a3.69,3.69,0,0,1-2.61-1l1.22-1.34a1.91,1.91,0,0,0,1.49.74c.55,0,1.18-.27,1.18-.81,0-1.42-3.63-.66-3.63-3.24,0-1.65,1.43-2.52,3-2.52a3.49,3.49,0,0,1,2.37.81Z"/><path class="cls-4" d="M62.64,107.12h2.88c1.61,0,2.94.51,2.94,2.35s-1.23,2.38-2.86,2.38H64.35v3H62.64Zm1.71,3.28h1.14c.6,0,1.2-.21,1.2-.93s-.81-.91-1.47-.91h-.87Z"/><path class="cls-4" d="M69.66,107.12h1.71v7.75H69.66Z"/><path class="cls-4" d="M83.47,114.32a7,7,0,0,1-3.25.74,4.07,4.07,0,1,1,0-8.14,4.41,4.41,0,0,1,3.09,1l-1.2,1.31a2.4,2.4,0,0,0-1.89-.73,2.5,2.5,0,0,0,0,5,3.24,3.24,0,0,0,1.61-.39v-1.25H80.44v-1.58h3Z"/><path class="cls-4" d="M85.12,107.12h3c1.59,0,2.92.55,2.92,2.35a2,2,0,0,1-1.67,2.12l2,3.28h-2l-1.62-3.1h-.84v3.1H85.12Zm1.71,3.21h1c.62,0,1.43,0,1.43-.87s-.7-.9-1.32-.9H86.83Z"/><path class="cls-4" d="M95.06,107.12h1.41l3.37,7.75H97.92l-.67-1.65h-3l-.64,1.65H91.71Zm.66,2.25-.94,2.41h1.89Z"/><path class="cls-4" d="M100.77,107.12h2.32l3.29,5.38h0v-5.38h1.71v7.75h-2.23l-3.38-5.52h0v5.52h-1.7Z"/><path class="cls-4" d="M109.83,107.12h2.56c2.5,0,4.59,1.06,4.59,3.89,0,2.51-2,3.86-4.36,3.86h-2.79Zm1.71,6.17h.89c1.58,0,2.77-.6,2.77-2.36,0-1.52-1.21-2.23-2.65-2.23h-1Z"/><path class="cls-4" d="M125.44,106.92a4.07,4.07,0,1,1-4.18,4.07A3.93,3.93,0,0,1,125.44,106.92Zm0,6.57A2.5,2.5,0,1,0,123,111,2.34,2.34,0,0,0,125.44,113.49Z"/><path class="cls-4" d="M137.46,111.88a3.27,3.27,0,0,1-6.53,0v-4.76h1.7v4.69a1.56,1.56,0,1,0,3.12,0v-4.69h1.71Z"/><path class="cls-4" d="M139.25,107.12h5.26v1.58H141v1.44h3.36v1.58H141v1.57h3.75v1.58h-5.45Z"/><path class="cls-4" d="M150.05,109a1.65,1.65,0,0,0-1.24-.51c-.48,0-1.14.22-1.14.8,0,1.41,3.56.5,3.56,3.21,0,1.73-1.39,2.55-3,2.55a3.69,3.69,0,0,1-2.61-1l1.22-1.34a1.9,1.9,0,0,0,1.48.74c.56,0,1.19-.27,1.19-.81,0-1.42-3.64-.66-3.64-3.24,0-1.65,1.44-2.52,3-2.52a3.51,3.51,0,0,1,2.37.81Z"/><path class="cls-4" d="M154.15,108.63h-2.21v-1.51h6.13v1.51h-2.21v6.24h-1.71Z"/><path class="cls-4" d="M136.37,52.73c-12.19,0-20.92,8.62-21.92,21.25-.06.8-.09,1.61-.09,2.44A24.4,24.4,0,0,0,118.18,90c3.83,5.8,10.28,9.31,18.19,9.31,13.2,0,22.07-9.2,22.07-22.88C158.44,62.47,149.37,52.73,136.37,52.73Zm0,39.13c-6.56,0-11-6.21-11-15.45,0-9.71,4.41-16.24,11-16.24s11,6.53,11,16.24C147.42,85.79,143.09,91.86,136.38,91.86Z"/><path class="cls-4" d="M75.18,53.88c-.25,2.24-.37,3.55-.37,10.88V89.07c0,7.52-1.49,9.32-7.9,9.32-.74,0-1.8-.12-2.92-.24a81.2,81.2,0,0,0,.38-10.88V79.19H49v9.88c0,7.52-1.49,9.32-7.9,9.32-.74,0-1.8-.12-2.92-.24.25-2.24.37-3.55.37-10.88V63c0-7.52,1.5-9.32,7.9-9.32.75,0,1.8.12,2.92.24-.25,2.24-.37,3.55-.37,10.88v7H64.37V63c0-7.52,1.49-9.32,7.89-9.32C73,53.64,74.06,53.76,75.18,53.88Z"/><path class="cls-4" d="M117.87,93.58a21.26,21.26,0,0,1-1.71-2.26,26.89,26.89,0,0,1-4.22-14.9c0-.87,0-1.75.1-2.63a1,1,0,0,0,0-.17H96.51a12.42,12.42,0,0,0-.2,2.07c0,4.34,2,5.69,8.28,5.69h3.35v9.28a21.73,21.73,0,0,1-6.39.88c-8.08,0-12.8-5.44-12.8-15.07,0-10.93,6.14-16,14.35-16a17.55,17.55,0,0,1,11.19,4,25.05,25.05,0,0,1,2.49-4.41c-1-4.35-6.74-7.37-15.16-7.37-14.75,0-24,9.32-24,24.06,0,14.23,8.67,22.51,23.29,22.51A45.43,45.43,0,0,0,117.16,96a1.41,1.41,0,0,0,.88-1.31v-.64A.78.78,0,0,0,117.87,93.58Z"/><path class="cls-1" d="M230.56,36.07A10.29,10.29,0,0,0,226.61,33a11.73,11.73,0,0,0-4.94-1.1A13.24,13.24,0,0,0,216,33a12.93,12.93,0,0,0-4.32,3.19A14.81,14.81,0,0,0,208.93,41a17,17,0,0,0-1,5.85,16,16,0,0,0,.94,5.51,13.67,13.67,0,0,0,2.7,4.58A12.62,12.62,0,0,0,215.9,60a14,14,0,0,0,5.77,1.14,11.46,11.46,0,0,0,5.57-1.3,11.9,11.9,0,0,0,4-3.64l4.21,3.18a16.26,16.26,0,0,1-1.45,1.63,14.31,14.31,0,0,1-2.76,2.14,19.64,19.64,0,0,1-4.13,1.87,17.62,17.62,0,0,1-5.59.8,18.17,18.17,0,0,1-7.88-1.66,19,19,0,0,1-9.75-10.48,19.08,19.08,0,0,1-1.3-6.89A21.72,21.72,0,0,1,204,39,18.72,18.72,0,0,1,208,32.71,17.52,17.52,0,0,1,214,28.63a20.26,20.26,0,0,1,7.8-1.45,19,19,0,0,1,7.15,1.4,13.38,13.38,0,0,1,5.74,4.32Z"/><path class="cls-1" d="M243.93,28.11h5V60.25h16.9v4.68H243.93Z"/><path class="cls-1" d="M273.31,28.11h5V64.93h-5Z"/><path class="cls-1" d="M290.16,28.11h6.55L317,58.38h.1V28.11h5V64.93h-6.35L295.25,34.66h-.1V64.93h-5Z"/><path class="cls-1" d="M333.94,28.11h5V64.93h-5Z"/><path class="cls-1" d="M388.8,64.93H367.59a19.52,19.52,0,0,1-7.39-1.41,18.65,18.65,0,0,1-6.08-3.9A18.15,18.15,0,0,1,350,53.67a18.68,18.68,0,0,1-1.51-7.57A19.15,19.15,0,0,1,350,38.59a18.41,18.41,0,0,1,4-6,18.61,18.61,0,0,1,6-4,19.37,19.37,0,0,1,7.52-1.43,18.93,18.93,0,0,1,13.26,5.27,18.54,18.54,0,0,1,4,5.83,18,18,0,0,1,1.48,7.3,19.32,19.32,0,0,1-.55,4.61,17.37,17.37,0,0,1-1.61,4.23A14.9,14.9,0,0,1,381.5,58a12.8,12.8,0,0,1-3.62,2.5v.1H388.8Zm-21.42-4.68a13.45,13.45,0,0,0,5.54-1.12,12.74,12.74,0,0,0,4.31-3.07,13.8,13.8,0,0,0,2.79-4.6,16.32,16.32,0,0,0,1-5.67,14.56,14.56,0,0,0-1-5.46,13.45,13.45,0,0,0-2.83-4.42,13.62,13.62,0,0,0-4.32-3,13.42,13.42,0,0,0-5.46-1.1A13.1,13.1,0,0,0,362,33a13.48,13.48,0,0,0-7.15,7.36,13.83,13.83,0,0,0-1,5.38,16.32,16.32,0,0,0,1,5.67A14.1,14.1,0,0,0,357.58,56a13,13,0,0,0,9.8,4.27Z"/><path class="cls-1" d="M400.76,28.11V50.68a14.59,14.59,0,0,0,.47,3.56,10.25,10.25,0,0,0,1.56,3.41,8.5,8.5,0,0,0,2.86,2.55,10.23,10.23,0,0,0,8.74,0,8.5,8.5,0,0,0,2.86-2.55,10.25,10.25,0,0,0,1.56-3.41,14.59,14.59,0,0,0,.47-3.56V28.11h5V51.46a15.24,15.24,0,0,1-1.09,5.85,14,14,0,0,1-3,4.55,13.46,13.46,0,0,1-4.52,3,15.85,15.85,0,0,1-11.24,0,13.46,13.46,0,0,1-4.52-3,14,14,0,0,1-3-4.55,15.24,15.24,0,0,1-1.09-5.85V28.11Z"/><path class="cls-1" d="M435.45,28.11h23.76v4.68H440.44v11h17.47v4.68H440.44V60.25h19.71v4.68h-24.7Z"/><path class="cls-1" d="M486.1,28.11h7.43L505.23,56h.21L517,28.11h7.44V64.93h-5V34.66h-.1L507,64.93h-3.33L491.19,34.66h-.1V64.93h-5Z"/><path class="cls-1" d="M540.28,28.11V50.68a14.59,14.59,0,0,0,.47,3.56,10.25,10.25,0,0,0,1.56,3.41,8.5,8.5,0,0,0,2.86,2.55,10.23,10.23,0,0,0,8.74,0,8.5,8.5,0,0,0,2.86-2.55,10.25,10.25,0,0,0,1.56-3.41,14.59,14.59,0,0,0,.47-3.56V28.11h5V51.46a15.24,15.24,0,0,1-1.09,5.85,14,14,0,0,1-3,4.55,13.46,13.46,0,0,1-4.52,3,15.85,15.85,0,0,1-11.24,0,13.46,13.46,0,0,1-4.52-3,14,14,0,0,1-3-4.55,15.24,15.24,0,0,1-1.09-5.85V28.11Z"/><path class="cls-1" d="M582.66,32.79H570.81V28.11h28.7v4.68H587.66V64.93h-5Z"/><path class="cls-1" d="M611.53,28.11V50.68a14.56,14.56,0,0,0,.46,3.56,10.25,10.25,0,0,0,1.56,3.41,8.5,8.5,0,0,0,2.86,2.55,10.23,10.23,0,0,0,8.74,0A8.5,8.5,0,0,0,628,57.65a10.25,10.25,0,0,0,1.56-3.41,14.59,14.59,0,0,0,.47-3.56V28.11h5V51.46a15.06,15.06,0,0,1-1.09,5.85,14,14,0,0,1-3,4.55,13.46,13.46,0,0,1-4.52,3,15.85,15.85,0,0,1-11.24,0,13.46,13.46,0,0,1-4.52-3,13.79,13.79,0,0,1-3-4.55,15.06,15.06,0,0,1-1.1-5.85V28.11Z"/><path class="cls-1" d="M657.75,28.11h4.53L678,64.93h-5.82l-3.69-9.1H651l-3.64,9.1h-5.82Zm9,23.35-6.87-16.9h-.1l-7,16.9Z"/><path class="cls-1" d="M685.21,28.11h5V60.25h16.9v4.68H685.21Z"/><path class="cls-1" d="M714.59,28.11h5V64.93h-5Z"/><path class="cls-1" d="M732.53,57.23a8.23,8.23,0,0,0,3.46,3,10.34,10.34,0,0,0,4.34,1,8.88,8.88,0,0,0,2.55-.39,7.72,7.72,0,0,0,2.37-1.17A6.39,6.39,0,0,0,747,57.7a5.12,5.12,0,0,0,.67-2.65,4,4,0,0,0-1.35-3.25A11.52,11.52,0,0,0,743,49.93c-1.34-.51-2.79-1-4.37-1.46a18,18,0,0,1-4.37-1.95,10.71,10.71,0,0,1-3.35-3.35,10.5,10.5,0,0,1-1.35-5.7,9.81,9.81,0,0,1,2.91-6.76,12.07,12.07,0,0,1,3.87-2.52,14.38,14.38,0,0,1,5.7-1,19.69,19.69,0,0,1,5.77.83,9.82,9.82,0,0,1,4.83,3.38l-4.05,3.69a6.81,6.81,0,0,0-2.65-2.34,8.42,8.42,0,0,0-3.9-.89,9.54,9.54,0,0,0-3.46.55,6.26,6.26,0,0,0-2.21,1.4,4.89,4.89,0,0,0-1.17,1.85,5.57,5.57,0,0,0-.34,1.82,4.65,4.65,0,0,0,1.35,3.59,10.5,10.5,0,0,0,3.36,2,38.76,38.76,0,0,0,4.37,1.4,19.09,19.09,0,0,1,4.36,1.74,10.33,10.33,0,0,1,3.36,3A8.9,8.9,0,0,1,753,54.48a11,11,0,0,1-1,4.78,10.58,10.58,0,0,1-2.72,3.59,12.19,12.19,0,0,1-4.06,2.23,15.71,15.71,0,0,1-5,.78,18.17,18.17,0,0,1-6.71-1.24,11.11,11.11,0,0,1-5.05-3.85Z"/><path class="cls-1" d="M770.44,32.79H758.59V28.11h28.7v4.68H775.43V64.93h-5Z"/><path class="cls-1" d="M795,28.11h23.76v4.68H800v11h17.47v4.68H800V60.25h19.71v4.68H795Z"/><path class="cls-3" d="M204.09,77.43h12.85a23.81,23.81,0,0,1,6.84.88,18.13,18.13,0,0,1,5.09,2.37,14.79,14.79,0,0,1,3.59,3.4,18.2,18.2,0,0,1,2.26,4,19.44,19.44,0,0,1,1.2,4,21.52,21.52,0,0,1,.36,3.75,18.42,18.42,0,0,1-1.3,6.83,17.35,17.35,0,0,1-3.84,5.88,18.94,18.94,0,0,1-6.32,4.13,22.67,22.67,0,0,1-8.71,1.56h-12Zm5,32.14h6.29a20.74,20.74,0,0,0,6-.86,14.64,14.64,0,0,0,5-2.58,12.24,12.24,0,0,0,3.38-4.29,13.66,13.66,0,0,0,1.25-6,18,18,0,0,0-.57-4.14,12.37,12.37,0,0,0-2.16-4.5,12.85,12.85,0,0,0-4.39-3.61,15.59,15.59,0,0,0-7.29-1.48h-7.48Z"/><path class="cls-3" d="M241.38,77.43h23.76v4.68H246.37v11h17.47v4.68H246.37v11.81h19.71v4.67h-24.7Z"/><path class="cls-3" d="M283.45,77.43h5v32.14h16.9v4.67H283.45Z"/><path class="cls-3" d="M323,77.43h4.53l15.75,36.81h-5.82l-3.69-9.1H316.26l-3.64,9.1H306.8Zm9,23.35-6.87-16.9H325l-7,16.9Z"/><path class="cls-3" d="M358.38,77.43h12.95a15.21,15.21,0,0,1,5.83,1,9.85,9.85,0,0,1,3.61,2.44,8.45,8.45,0,0,1,1.85,3.33,12.45,12.45,0,0,1,0,7.12,8.31,8.31,0,0,1-1.85,3.33,9.87,9.87,0,0,1-3.61,2.45,15.21,15.21,0,0,1-5.83,1h-7.95v16.22h-5Zm5,16.22h6.55a18.44,18.44,0,0,0,2.88-.23,7.67,7.67,0,0,0,2.55-.86,4.83,4.83,0,0,0,1.8-1.79,7.25,7.25,0,0,0,0-6.09,4.69,4.69,0,0,0-1.8-1.79,7.67,7.67,0,0,0-2.55-.86,17.31,17.31,0,0,0-2.88-.24h-6.55Z"/><path class="cls-3" d="M404,115.18a19.82,19.82,0,0,1-7.75-1.48,18.09,18.09,0,0,1-6.06-4.08,18.89,18.89,0,0,1-4-6.14,21.15,21.15,0,0,1,0-15.29,18.74,18.74,0,0,1,4-6.13A18,18,0,0,1,396.29,78a21,21,0,0,1,15.5,0,18.16,18.16,0,0,1,6.06,4.09,18.9,18.9,0,0,1,3.95,6.13,21.15,21.15,0,0,1,0,15.29,19.06,19.06,0,0,1-3.95,6.14,18.29,18.29,0,0,1-6.06,4.08A19.82,19.82,0,0,1,404,115.18Zm0-4.68a13.37,13.37,0,0,0,10.09-4.32,13.82,13.82,0,0,0,2.81-4.65,17,17,0,0,0,0-11.39,14,14,0,0,0-2.81-4.65,13.78,13.78,0,0,0-20.18,0,14,14,0,0,0-2.81,4.65,17,17,0,0,0,0,11.39,13.82,13.82,0,0,0,2.81,4.65A13.37,13.37,0,0,0,404,110.5Z"/><path class="cls-3" d="M428.32,77.43h12.95a15.21,15.21,0,0,1,5.83,1,9.85,9.85,0,0,1,3.61,2.44,8.45,8.45,0,0,1,1.85,3.33,13.39,13.39,0,0,1,.52,3.56,9.64,9.64,0,0,1-2.42,6.37,10.31,10.31,0,0,1-2.86,2.24A10,10,0,0,1,444,97.45l10.45,16.79h-6.24L438.88,98h-5.56v16.22h-5Zm5,16.22h6.55a18.44,18.44,0,0,0,2.88-.23,7.67,7.67,0,0,0,2.55-.86,4.83,4.83,0,0,0,1.8-1.79,7.25,7.25,0,0,0,0-6.09,4.69,4.69,0,0,0-1.8-1.79,7.67,7.67,0,0,0-2.55-.86,17.31,17.31,0,0,0-2.88-.24h-6.55Z"/><path class="cls-3" d="M465.71,82.11H453.86V77.43h28.7v4.68H470.71v32.13h-5Z"/><path class="cls-3" d="M485.78,77.43h23.77v4.68H490.78v11h17.47v4.68H490.78v11.81h19.7v4.67h-24.7Z"/><path class="cls-3" d="M527,77.43h12.85a23.69,23.69,0,0,1,6.83.88,18.2,18.2,0,0,1,5.1,2.37,14.79,14.79,0,0,1,3.59,3.4,18.2,18.2,0,0,1,2.26,4,20.73,20.73,0,0,1,1.2,4,21.52,21.52,0,0,1,.36,3.75,18.42,18.42,0,0,1-1.3,6.83,17.38,17.38,0,0,1-3.85,5.88,18.84,18.84,0,0,1-6.32,4.13,22.6,22.6,0,0,1-8.71,1.56H527Zm5,32.14h6.3a20.67,20.67,0,0,0,6-.86,14.6,14.6,0,0,0,5-2.58,12.24,12.24,0,0,0,3.38-4.29,13.66,13.66,0,0,0,1.25-6,18,18,0,0,0-.57-4.14,12.7,12.7,0,0,0-2.16-4.5,12.89,12.89,0,0,0-4.4-3.61,15.54,15.54,0,0,0-7.28-1.48H532Z"/><path class="cls-3" d="M564.31,77.43h23.76v4.68H569.3v11h17.47v4.68H569.3v11.81H589v4.67h-24.7Z"/><path class="cls-3" d="M606.38,77.43h5v32.14h16.9v4.67H606.38Z"/><path class="cls-3" d="M633.73,90.22h-4.26l3.58-12.79h5Z"/><path class="cls-3" d="M660.56,115.18a19.82,19.82,0,0,1-7.75-1.48,18.14,18.14,0,0,1-6-4.08,18.91,18.91,0,0,1-4-6.14,21.15,21.15,0,0,1,0-15.29,18.76,18.76,0,0,1,4-6.13,18,18,0,0,1,6-4.09,21,21,0,0,1,15.5,0,18,18,0,0,1,6.06,4.09,18.74,18.74,0,0,1,4,6.13,21.15,21.15,0,0,1,0,15.29,18.89,18.89,0,0,1-4,6.14,18.09,18.09,0,0,1-6.06,4.08A19.82,19.82,0,0,1,660.56,115.18Zm0-4.68a13.37,13.37,0,0,0,10.09-4.32,13.82,13.82,0,0,0,2.81-4.65,16.88,16.88,0,0,0,0-11.39,14,14,0,0,0-2.81-4.65,13.78,13.78,0,0,0-20.18,0,13.83,13.83,0,0,0-2.8,4.65,16.88,16.88,0,0,0,0,11.39,13.41,13.41,0,0,0,12.89,9Z"/><path class="cls-3" d="M684.84,77.43h12.95a15.21,15.21,0,0,1,5.83,1,9.85,9.85,0,0,1,3.61,2.44,8.33,8.33,0,0,1,1.85,3.33,13.39,13.39,0,0,1,.52,3.56,9.64,9.64,0,0,1-2.42,6.37,10.16,10.16,0,0,1-2.86,2.24,9.92,9.92,0,0,1-3.77,1.12L711,114.24h-6.24L695.4,98h-5.56v16.22h-5Zm5,16.22h6.55a18.67,18.67,0,0,0,2.89-.23,7.69,7.69,0,0,0,2.54-.86,4.76,4.76,0,0,0,1.8-1.79,7.25,7.25,0,0,0,0-6.09,4.62,4.62,0,0,0-1.8-1.79,7.69,7.69,0,0,0-2.54-.86,17.52,17.52,0,0,0-2.89-.24h-6.55Z"/><path class="cls-3" d="M714.54,77.43h5v36.81h-5Z"/><path class="cls-3" d="M726.91,77.43h23.77v4.68H731.91v11h17.47v4.68H731.91v11.81h19.71v4.67H726.91Z"/><path class="cls-3" d="M756.61,77.43h6.55l20.28,30.26h.1V77.43h5v36.81h-6.35L761.7,84h-.1v30.26h-5Z"/><path class="cls-3" d="M803.62,82.11H791.76V77.43h28.71v4.68H808.61v32.13h-5Z"/></svg>