<svg id="Calque_1" data-name="Calque 1" xmlns="http://www.w3.org/2000/svg" xmlns:xlink="http://www.w3.org/1999/xlink" viewBox="0 0 566.93 170.08"><defs><style>.cls-1{fill:#9a9a9a;}.cls-2{fill:#ea2839;}.cls-3{fill:#fff;}.cls-4{fill:url(#Nouvelle_nuance_de_dégradé_2);}</style><linearGradient id="Nouvelle_nuance_de_dégradé_2" x1="355.75" y1="133.06" x2="559.84" y2="133.06" gradientUnits="userSpaceOnUse"><stop offset="0" stop-color="#9a9a9a"/><stop offset="1" stop-color="#fff"/></linearGradient></defs><title>HGO_G-VYV_C-Mut-Estuaire_RVB</title><path class="cls-1" d="M208.2,133.86h3a2.81,2.81,0,0,1-2.92,2.89c-2.12,0-3.55-1.56-3.55-3.88s1.43-3.87,3.49-3.87a3.11,3.11,0,0,1,2.87,1.7l.1.16,1.18-.71-.08-.16a4.33,4.33,0,0,0-4-2.31,4.9,4.9,0,0,0-4.93,5.19,4.84,4.84,0,0,0,4.93,5.19,4.18,4.18,0,0,0,3.05-1.32l.18,1.16h1.07v-5.35H208.2Z"/><path class="cls-1" d="M227.34,131.08a3.22,3.22,0,0,0-3.29-3.23H219.8V137.9h1.37v-3.59h2.66l2.59,3.59H228l-2.74-3.77a3.44,3.44,0,0,0,2.06-3m-1.37,0a2,2,0,0,1-1.92,1.91h-2.88v-3.83h2.88a2,2,0,0,1,1.92,1.92"/><path class="cls-1" d="M238.81,127.68a4.9,4.9,0,0,0-4.93,5.19,4.94,4.94,0,1,0,9.86,0,4.85,4.85,0,0,0-4.93-5.19m0,9.07c-2.13,0-3.56-1.56-3.56-3.88s1.43-3.87,3.56-3.87,3.55,1.56,3.55,3.87-1.42,3.88-3.55,3.88"/><path class="cls-1" d="M257.9,133.8a2.8,2.8,0,1,1-5.6,0v-6h-1.37v6.2a4.17,4.17,0,0,0,8.34,0v-6.2H257.9Z"/><path class="cls-1" d="M271,127.85h-4V137.9h1.38v-3.4H271a3.33,3.33,0,1,0,0-6.65m2,3.32a1.88,1.88,0,0,1-2,2h-2.63v-4H271a1.89,1.89,0,0,1,2,2"/><polygon class="cls-1" points="288.41 129.16 288.41 127.85 282.19 127.85 282.19 137.9 288.41 137.9 288.41 136.58 283.56 136.58 283.56 133.35 288.14 133.35 288.14 132.03 283.56 132.03 283.56 129.16 288.41 129.16"/><path class="cls-1" d="M346,125.2c-3.79,0-4.71,4.09-6.26,10.83-2.16-1.39-.56-9.73-5.37-9.73a6.59,6.59,0,0,0-2.42.55c3.05,5.87,2.51,12.79,8.35,12.79a9.44,9.44,0,0,0,1.55-.13l6.06-14a8.88,8.88,0,0,0-1.91-.29"/><path class="cls-1" d="M307.45,136c-2.17-1.39-.57-9.73-5.38-9.73a6.59,6.59,0,0,0-2.42.55c3.06,5.87,2.51,12.79,8.35,12.79a9.44,9.44,0,0,0,1.55-.13l6.06-14a9.45,9.45,0,0,0-1.91-.29c-3.79,0-4.7,4.09-6.25,10.83"/><path class="cls-1" d="M323.44,136.3c-1.46-2.44-.51-10-4.91-10a6.35,6.35,0,0,0-2.41.55c2.71,5.21,2.5,11.25,6.51,12.54-.39,1.3-.94,2.53-1.77,2.53-.64,0-1.32-.21-2.05-.21-1.74,0-2.24.76-2.78,2.45a8.31,8.31,0,0,0,3.92,1.18c2.69,0,4.71-2.44,6.06-5.83l5.61-14a5.52,5.52,0,0,0-1.46-.29c-4.05,0-4.88,4.13-6.72,11.1"/><path class="cls-1" d="M218,47.35a6.76,6.76,0,0,0-5.3-2.51c-4.93,0-8.19,3.94-8.19,8.93,0,4.62,3.07,8.56,8.19,8.56a6.75,6.75,0,0,0,5.73-2.95l2.52,1.9a10.26,10.26,0,0,1-8.31,3.84A11.3,11.3,0,0,1,201.3,53.77c0-6.82,4.68-11.72,11.44-11.72a9.66,9.66,0,0,1,7.69,3.41Z"/><path class="cls-1" d="M224.8,42.61h3V61.77h10.08v2.79h-13Z"/><path class="cls-1" d="M241.2,42.61h3v22h-3Z"/><path class="cls-1" d="M250.13,42.61H254l12.09,18h.07v-18h3v22h-3.78l-12.22-18h-.06v18h-3Z"/><path class="cls-1" d="M275.11,42.61h3v22h-3Z"/><path class="cls-1" d="M306.7,64.56H294.05a11.26,11.26,0,1,1,0-22.51,11,11,0,0,1,11.2,11c0,3.72-1.77,7.38-5,8.87V62h6.51Zm-4.65-11.41a8.11,8.11,0,1,0-16.21-.06c0,4.81,3.31,8.68,8.09,8.68S302.05,58,302.05,53.15Z"/><path class="cls-1" d="M312.71,42.61V56.07c0,2.72,1.37,6.26,5.52,6.26s5.52-3.54,5.52-6.26V42.61h3V56.53a8.5,8.5,0,1,1-17,0V42.61Z"/><path class="cls-1" d="M332.27,42.61h14.17V45.4H335.25v6.54h10.42v2.79H335.25v7H347v2.79H332.27Z"/><path class="cls-1" d="M360.24,42.61h4.43l7,16.62h.12l6.91-16.62h4.44v22h-3v-18h-.06l-7.41,18h-2l-7.42-18h-.06v18h-3Z"/><path class="cls-1" d="M391.42,42.61V56.07c0,2.72,1.37,6.26,5.52,6.26s5.52-3.54,5.52-6.26V42.61h3V56.53a8.5,8.5,0,1,1-17,0V42.61Z"/><path class="cls-1" d="M415.57,45.4H408.5V42.61h17.12V45.4h-7.07V64.56h-3Z"/><path class="cls-1" d="M431.66,42.61V56.07c0,2.72,1.36,6.26,5.52,6.26s5.52-3.54,5.52-6.26V42.61h3V56.53a8.5,8.5,0,1,1-17,0V42.61Z"/><path class="cls-1" d="M458.11,42.61h2.69l9.4,22h-3.48l-2.2-5.42H454.07l-2.17,5.42h-3.47Zm5.33,13.92-4.09-10.08h-.07l-4.15,10.08Z"/><path class="cls-1" d="M473.36,42.61h3V61.77h10.08v2.79H473.36Z"/><path class="cls-1" d="M489.75,42.61h3v22h-3Z"/><path class="cls-1" d="M499.33,60A5.48,5.48,0,0,0,504,62.33c1.95,0,4.37-1.24,4.37-3.66,0-5.05-10.82-1.92-10.82-10.48,0-2.57,2.17-6.14,7.44-6.14,2.38,0,4.68.5,6.32,2.51l-2.42,2.2a4.61,4.61,0,0,0-3.9-1.92c-3.29,0-4.28,2-4.28,3.35,0,5.55,10.82,2.23,10.82,10.14,0,4.25-3.41,6.79-7.63,6.79-2.82,0-5.52-1-7-3Z"/><path class="cls-1" d="M520.82,45.4h-7.07V42.61h17.11V45.4h-7.07V64.56h-3Z"/><path class="cls-1" d="M534.33,42.61H548.5V45.4H537.31v6.54h10.42v2.79H537.31v7h11.75v2.79H534.33Z"/><path class="cls-2" d="M203.74,77.74h12.85c15.55,0,19.34,11.6,19.34,18.41,0,9.42-7,18.41-20.18,18.41h-12Zm5,32.14H215c8.42,0,15.6-4.63,15.6-13.73,0-4.68-2.45-13.73-14.41-13.73h-7.49Z"/><path class="cls-2" d="M242.22,77.74H266v4.68H247.21v11h17.48v4.68H247.21v11.8h19.71v4.68h-24.7Z"/><path class="cls-2" d="M286.68,77.74h5v32.14h16.91v4.68h-21.9Z"/><path class="cls-2" d="M309.46,90.54h-4.27l3.59-12.8h5.05Z"/><path class="cls-2" d="M320.59,77.74h23.76v4.68H325.58v11h17.47v4.68H325.58v11.8h19.71v4.68h-24.7Z"/><path class="cls-2" d="M352.57,106.87a9.19,9.19,0,0,0,7.8,3.95c3.27,0,7.33-2.08,7.33-6.14,0-8.47-18.15-3.22-18.15-17.58,0-4.31,3.64-10.29,12.48-10.29,4,0,7.85.83,10.61,4.21l-4.06,3.69A7.72,7.72,0,0,0,362,81.49c-5.51,0-7.18,3.33-7.18,5.61,0,9.31,18.15,3.75,18.15,17,0,7.12-5.72,11.39-12.79,11.39-4.73,0-9.26-1.61-11.75-5.1Z"/><path class="cls-2" d="M387.2,82.42H375.34V77.74h28.71v4.68H392.19v32.14h-5Z"/><path class="cls-2" d="M412.78,77.74v22.57c0,4.58,2.29,10.51,9.26,10.51s9.25-5.93,9.25-10.51V77.74h5v23.35c0,8.53-6.19,14.41-14.25,14.41s-14.25-5.88-14.25-14.41V77.74Z"/><path class="cls-2" d="M455.73,77.74h4.53L476,114.56h-5.82l-3.69-9.1H449l-3.64,9.1h-5.82Zm8.95,23.35-6.87-16.9h-.1l-7,16.9Z"/><path class="cls-2" d="M479.91,77.74h5v36.82h-5Z"/><path class="cls-2" d="M493.49,77.74h12.94c9.42,0,11.81,5.67,11.81,10.3a9.89,9.89,0,0,1-9.05,9.73l10.45,16.79H513.4L504,98.34h-5.56v16.22h-5Zm5,16.23H505c4,0,7.9-.94,7.9-5.93S509,82.11,505,82.11h-6.55Z"/><path class="cls-2" d="M524.37,77.74h23.77v4.68H529.36v11h17.48v4.68H529.36v11.8h19.71v4.68h-24.7Z"/><path class="cls-2" d="M39.52,29.26c-16.79,9.56-26.08,29.63-25.3,49s10.61,37.58,24.36,51.24a67.42,67.42,0,0,0,14.9,11.48c7.74,4.23,16.49,6.35,25.25,7.3,33.71,3.68,68.8-10.47,90.43-36.46,7.34-8.81,13.36-19.49,13.24-31-.27-27.2-32.16-42.63-54.56-49.77C101.64,22.71,64.83,14.85,39.52,29.26Z"/><path class="cls-3" d="M38.51,107.12h1.71V110h3.31v-2.89h1.71v7.75H43.53v-3.35H40.22v3.35H38.51Z"/><path class="cls-3" d="M50.73,106.92a4.07,4.07,0,1,1,0,8.14,4.07,4.07,0,1,1,0-8.14Zm0,6.57a2.5,2.5,0,1,0-2.41-2.5A2.34,2.34,0,0,0,50.73,113.49Z"/><path class="cls-3" d="M60,109a1.64,1.64,0,0,0-1.23-.51c-.48,0-1.15.22-1.15.8,0,1.41,3.56.5,3.56,3.21,0,1.73-1.39,2.55-3,2.55a3.69,3.69,0,0,1-2.61-1l1.22-1.34a1.91,1.91,0,0,0,1.49.74c.55,0,1.18-.27,1.18-.81,0-1.42-3.63-.66-3.63-3.24,0-1.65,1.43-2.52,3-2.52a3.49,3.49,0,0,1,2.37.81Z"/><path class="cls-3" d="M62.64,107.12h2.88c1.61,0,2.94.51,2.94,2.35s-1.23,2.38-2.86,2.38H64.35v3H62.64Zm1.71,3.28h1.14c.6,0,1.2-.21,1.2-.93s-.81-.91-1.47-.91h-.87Z"/><path class="cls-3" d="M69.66,107.12h1.71v7.75H69.66Z"/><path class="cls-3" d="M83.47,114.32a7,7,0,0,1-3.25.74,4.07,4.07,0,1,1,0-8.14,4.41,4.41,0,0,1,3.09,1l-1.2,1.31a2.4,2.4,0,0,0-1.89-.73,2.5,2.5,0,0,0,0,5,3.24,3.24,0,0,0,1.61-.39v-1.25H80.44v-1.58h3Z"/><path class="cls-3" d="M85.12,107.12h3c1.59,0,2.92.55,2.92,2.35a2,2,0,0,1-1.67,2.12l2,3.28h-2l-1.62-3.1h-.84v3.1H85.12Zm1.71,3.21h1c.62,0,1.43,0,1.43-.87s-.7-.9-1.32-.9H86.83Z"/><path class="cls-3" d="M95.06,107.12h1.41l3.37,7.75H97.92l-.67-1.65h-3l-.64,1.65H91.71Zm.66,2.25-.94,2.41h1.89Z"/><path class="cls-3" d="M100.77,107.12h2.32l3.29,5.38h0v-5.38h1.71v7.75h-2.23l-3.38-5.52h0v5.52h-1.7Z"/><path class="cls-3" d="M109.83,107.12h2.56c2.5,0,4.59,1.06,4.59,3.89,0,2.51-2,3.86-4.36,3.86h-2.79Zm1.71,6.17h.89c1.58,0,2.77-.6,2.77-2.36,0-1.52-1.21-2.23-2.65-2.23h-1Z"/><path class="cls-3" d="M125.44,106.92a4.07,4.07,0,1,1-4.18,4.07A3.93,3.93,0,0,1,125.44,106.92Zm0,6.57A2.5,2.5,0,1,0,123,111,2.34,2.34,0,0,0,125.44,113.49Z"/><path class="cls-3" d="M137.46,111.88a3.27,3.27,0,0,1-6.53,0v-4.76h1.7v4.69a1.56,1.56,0,1,0,3.12,0v-4.69h1.71Z"/><path class="cls-3" d="M139.25,107.12h5.26v1.58H141v1.44h3.36v1.58H141v1.57h3.75v1.58h-5.45Z"/><path class="cls-3" d="M150.05,109a1.65,1.65,0,0,0-1.24-.51c-.48,0-1.14.22-1.14.8,0,1.41,3.56.5,3.56,3.21,0,1.73-1.39,2.55-3,2.55a3.69,3.69,0,0,1-2.61-1l1.22-1.34a1.9,1.9,0,0,0,1.48.74c.56,0,1.19-.27,1.19-.81,0-1.42-3.64-.66-3.64-3.24,0-1.65,1.44-2.52,3-2.52a3.51,3.51,0,0,1,2.37.81Z"/><path class="cls-3" d="M154.15,108.63h-2.21v-1.51h6.13v1.51h-2.21v6.24h-1.71Z"/><path class="cls-3" d="M136.37,52.73c-12.19,0-20.92,8.62-21.92,21.25-.06.8-.09,1.61-.09,2.44A24.4,24.4,0,0,0,118.18,90c3.83,5.8,10.28,9.31,18.19,9.31,13.2,0,22.07-9.2,22.07-22.88C158.44,62.47,149.37,52.73,136.37,52.73Zm0,39.13c-6.56,0-11-6.21-11-15.45,0-9.71,4.41-16.24,11-16.24s11,6.53,11,16.24C147.42,85.79,143.09,91.86,136.38,91.86Z"/><path class="cls-3" d="M75.18,53.88c-.25,2.24-.37,3.55-.37,10.88V89.07c0,7.52-1.49,9.32-7.9,9.32-.74,0-1.8-.12-2.92-.24a81.2,81.2,0,0,0,.38-10.88V79.19H49v9.88c0,7.52-1.49,9.32-7.9,9.32-.74,0-1.8-.12-2.92-.24.25-2.24.37-3.55.37-10.88V63c0-7.52,1.5-9.32,7.9-9.32.75,0,1.8.12,2.92.24-.25,2.24-.37,3.55-.37,10.88v7H64.37V63c0-7.52,1.49-9.32,7.89-9.32C73,53.64,74.06,53.76,75.18,53.88Z"/><path class="cls-3" d="M117.87,93.58a21.26,21.26,0,0,1-1.71-2.26,26.89,26.89,0,0,1-4.22-14.9c0-.87,0-1.75.1-2.63a1,1,0,0,0,0-.17H96.51a12.42,12.42,0,0,0-.2,2.07c0,4.34,2,5.69,8.28,5.69h3.35v9.28a21.73,21.73,0,0,1-6.39.88c-8.08,0-12.8-5.44-12.8-15.07,0-10.93,6.14-16,14.35-16a17.55,17.55,0,0,1,11.19,4,25.05,25.05,0,0,1,2.49-4.41c-1-4.35-6.74-7.37-15.16-7.37-14.75,0-24,9.32-24,24.06,0,14.23,8.67,22.51,23.29,22.51A45.43,45.43,0,0,0,117.16,96a1.41,1.41,0,0,0,.88-1.31v-.64A.78.78,0,0,0,117.87,93.58Z"/><rect class="cls-4" x="355.75" y="132.22" width="204.09" height="1.69"/></svg>