<svg id="Calque_1" data-name="Calque 1" xmlns="http://www.w3.org/2000/svg" xmlns:xlink="http://www.w3.org/1999/xlink" viewBox="0 0 276.97 118.24"><defs><style>.cls-1{fill:none;}.cls-2{clip-path:url(#clip-path);}.cls-3{fill:url(#linear-gradient);}.cls-4{clip-path:url(#clip-path-2);}.cls-5{fill:url(#linear-gradient-2);}.cls-6{clip-path:url(#clip-path-3);}.cls-7{fill:url(#linear-gradient-3);}.cls-8{fill:#e5157d;}.cls-9{fill:#1d1d1b;}.cls-10{fill:#78368c;}.cls-11{fill:#878787;}</style><clipPath id="clip-path"><path class="cls-1" d="M77.21,19.22a3,3,0,0,1,.94,1.08L89.34,43h16.4L91.36,13.8a17.7,17.7,0,0,0-9.55-8.71Z"/></clipPath><linearGradient id="linear-gradient" x1="-467.25" y1="418.11" x2="-466.3" y2="418.11" gradientTransform="matrix(30.03, 0, 0, -30.03, 14108.9, 12580.1)" gradientUnits="userSpaceOnUse"><stop offset="0" stop-color="#00346b"/><stop offset="1" stop-color="#0084c9"/></linearGradient><clipPath id="clip-path-2"><path class="cls-1" d="M67.54,5.7,16.08,31A17.73,17.73,0,0,0,7.54,40.3l14.17,4.61a3,3,0,0,1,.88-.68L74,18.91a3,3,0,0,1,.89-.21L79.59,4.4a17.46,17.46,0,0,0-12,1.3"/></clipPath><linearGradient id="linear-gradient-2" x1="-476.98" y1="412.74" x2="-476.03" y2="412.74" gradientTransform="matrix(75.82, 0, 0, -75.82, 36170.59, 31316.92)" gradientUnits="userSpaceOnUse"><stop offset="0" stop-color="#52c3f1"/><stop offset="0.21" stop-color="#4ebfed"/><stop offset="0.44" stop-color="#41b5e2"/><stop offset="0.67" stop-color="#2ba3d0"/><stop offset="0.91" stop-color="#0e8ab6"/><stop offset="1" stop-color="#007eaa"/></linearGradient><clipPath id="clip-path-3"><path class="cls-1" d="M6.35,44.91v4.52A17.42,17.42,0,0,0,8,54.85L33.31,106.3A17.65,17.65,0,0,0,43,115L47.55,101a3.22,3.22,0,0,1-1-1.19L21.19,48.35a3.18,3.18,0,0,1-.3-1.26L6.82,42.5a18,18,0,0,0-.47,2.41"/></clipPath><linearGradient id="linear-gradient-3" x1="-472.18" y1="415.01" x2="-471.23" y2="415.01" gradientTransform="matrix(43.5, 0, 0, -43.5, 20546.36, 18132.16)" gradientUnits="userSpaceOnUse"><stop offset="0" stop-color="#9da92b"/><stop offset="0.31" stop-color="#afbc2f"/><stop offset="0.71" stop-color="#bfce33"/><stop offset="1" stop-color="#c5d434"/></linearGradient></defs><g class="cls-2"><rect class="cls-3" x="77.21" y="5.09" width="28.54" height="37.94"/></g><g class="cls-4"><rect class="cls-5" x="7.54" y="3.87" width="72.05" height="41.04"/></g><g class="cls-6"><rect class="cls-7" x="6.35" y="42.5" width="41.2" height="72.54"/></g><path class="cls-8" d="M66,93.63l-15.36,7.56a3.45,3.45,0,0,1-.79.24l-4.65,14.29a17.91,17.91,0,0,0,4.1.51,17.56,17.56,0,0,0,7.84-1.83l42.2-20.77Z"/><path class="cls-9" d="M224.54,85.33h-5v-14l-12.15-17.8H215L223,65.76l7.87-12.2h7.41l-12,17.8v11.2Z"/><path class="cls-10" d="M156.26,65.42l7.87-12.2h7.41l-12,17.8v11.2L157.85,85h-5V71Z"/><path class="cls-11" d="M152.23,70.2l-11.57-17h7.69l7.44,11.47Z"/><path class="cls-9" d="M63.26,85.13H56.6V53.37H71.08q7.61,0,10.77,2.57,3,2.4,3,7.82,0,5.75-3.41,8.1Q78.32,74,71.34,74H63.26ZM71,59.06H63.26v9.33h8.08q6,0,6-4.63a4.21,4.21,0,0,0-1.33-3.49Q74.57,59.06,71,59.06Z"/><path class="cls-9" d="M103.61,52.72A21.3,21.3,0,0,1,111.52,54a11.45,11.45,0,0,1,5.81,5q2.27,3.89,2.27,10.28,0,7.89-3.45,11.94-3.9,4.59-12.45,4.59-8.13,0-12-4.13T87.79,69.17a20.45,20.45,0,0,1,2.11-9.94,11.5,11.5,0,0,1,5.65-5.06A20.2,20.2,0,0,1,103.61,52.72ZM95.05,69.18c0,3.4.61,6,1.81,7.88q2.16,3.28,6.79,3.29t6.68-3q2-2.78,2-8a20.17,20.17,0,0,0-.51-4.91,7.59,7.59,0,0,0-8.15-6.16,7.6,7.6,0,0,0-6.48,2.91Q95.06,63.94,95.05,69.18Z"/><path class="cls-9" d="M145.62,79.88v5.25h-8.49a23.72,23.72,0,0,1-7-.79,8.13,8.13,0,0,1-4.68-3.69c-1.13-2-1.7-4.75-1.7-8.38V53.37h6.62V70.83a29.9,29.9,0,0,0,.28,5.12,4.27,4.27,0,0,0,1.95,3,10.23,10.23,0,0,0,5,.92Z"/><path class="cls-9" d="M182.45,85.13h-6.84V53.37h8.47L197,76.26l-.26-22.89h6.71V85.13h-7.67l-13.62-24Z"/><path class="cls-9" d="M250.46,53.37H268v5.69H251.52q-5.19,0-5.19,4.16a3.2,3.2,0,0,0,.88,2.37,4.55,4.55,0,0,0,3.34,1.08h8.79q5.69,0,8.06,2.28,2.16,2.07,2.16,6.68c0,3.15-.8,5.47-2.4,7q-2.67,2.52-8.74,2.52H240.66V79.44h16.7c2,0,3.42-.36,4.18-1.09a4.17,4.17,0,0,0,.95-3.06,2.75,2.75,0,0,0-.71-2.09c-.72-.68-2-1-4-1H250q-5.47,0-8-2.26t-2.57-7q0-4.73,2.42-7C243.55,54.23,246.46,53.37,250.46,53.37Z"/><path class="cls-11" d="M135.62,100.93a2.69,2.69,0,0,1-.6,1,3.28,3.28,0,0,1-2.41,1,3.38,3.38,0,0,1-1.27-.25,3,3,0,0,1-1.05-.7,2.54,2.54,0,0,1-.5-.67,2.9,2.9,0,0,1-.25-.77,5.46,5.46,0,0,1-.1-1c0-.36,0-.79,0-1.27s0-.91,0-1.27a5.58,5.58,0,0,1,.1-1,3,3,0,0,1,.25-.77,2.5,2.5,0,0,1,.5-.66,3.12,3.12,0,0,1,2.32-1,3.27,3.27,0,0,1,1.51.32,5,5,0,0,1,1.22.92l-.66.65c-.16-.16-.31-.3-.46-.43a3.46,3.46,0,0,0-.46-.32,2.16,2.16,0,0,0-.52-.2,2.48,2.48,0,0,0-.63-.07,2.35,2.35,0,0,0-.86.17,2.22,2.22,0,0,0-.71.48,1.87,1.87,0,0,0-.34.47,2.15,2.15,0,0,0-.2.59,6,6,0,0,0-.08.84c0,.33,0,.73,0,1.21s0,.88,0,1.21a6.15,6.15,0,0,0,.08.84,2.35,2.35,0,0,0,.2.6,1.87,1.87,0,0,0,.34.47,2,2,0,0,0,.71.47,2.31,2.31,0,0,0,1.81,0,2.06,2.06,0,0,0,1.16-1.32,3.71,3.71,0,0,0,.11-.93V99h-2.22v-.86h3.19v1.44A4.41,4.41,0,0,1,135.62,100.93Z"/><path class="cls-11" d="M132.61,103.22a3.43,3.43,0,0,1-1.36-.26,3.38,3.38,0,0,1-1.13-.75,3,3,0,0,1-.54-.73,3.11,3.11,0,0,1-.27-.83,5.16,5.16,0,0,1-.1-1c0-.37,0-.79,0-1.28s0-.92,0-1.28a5.16,5.16,0,0,1,.1-1,3.07,3.07,0,0,1,.27-.84,3,3,0,0,1,.54-.72,3.37,3.37,0,0,1,2.49-1,3.46,3.46,0,0,1,1.62.35,5.42,5.42,0,0,1,1.28,1l.16.17-1,1-.16-.17a5.24,5.24,0,0,0-.45-.41,2.38,2.38,0,0,0-.43-.3,1.7,1.7,0,0,0-.46-.18,2.23,2.23,0,0,0-1.34.09,1.93,1.93,0,0,0-.63.42,1.48,1.48,0,0,0-.3.42,1.74,1.74,0,0,0-.17.53,5.24,5.24,0,0,0-.08.8c0,.32,0,.72,0,1.2s0,.87,0,1.2a5.83,5.83,0,0,0,.08.81,1.74,1.74,0,0,0,.17.53,1.44,1.44,0,0,0,.3.41,1.74,1.74,0,0,0,.63.42,2.11,2.11,0,0,0,1.62,0,1.66,1.66,0,0,0,.68-.52,1.68,1.68,0,0,0,.35-.64,3.72,3.72,0,0,0,.1-.87v-.44h-2.21V97.9H136v1.69a4.59,4.59,0,0,1-.2,1.42,2.91,2.91,0,0,1-.65,1.09,3.64,3.64,0,0,1-1.15.83A3.58,3.58,0,0,1,132.61,103.22Zm0-9.25a2.91,2.91,0,0,0-2.16.87,2.4,2.4,0,0,0-.44.61,2.58,2.58,0,0,0-.24.71,6.11,6.11,0,0,0-.09.93c0,.36,0,.78,0,1.27s0,.9,0,1.26a6.38,6.38,0,0,0,.09.94,2.58,2.58,0,0,0,.24.71,2.36,2.36,0,0,0,.44.6,3.07,3.07,0,0,0,3.4.62,3,3,0,0,0,1-.71,2.43,2.43,0,0,0,.55-.92,4.24,4.24,0,0,0,.17-1.27V98.38h-2.71v.38h2.21v.91a4.16,4.16,0,0,1-.11,1,2.3,2.3,0,0,1-.44.83,2.45,2.45,0,0,1-.85.65,2.61,2.61,0,0,1-2,0,2.24,2.24,0,0,1-.79-.53,2.15,2.15,0,0,1-.39-.52,2.78,2.78,0,0,1-.21-.67,8.62,8.62,0,0,1-.09-.88c0-.33,0-.73,0-1.21s0-.89,0-1.22a8.4,8.4,0,0,1,.09-.87,2.56,2.56,0,0,1,.21-.66,2.2,2.2,0,0,1,.39-.53,2.44,2.44,0,0,1,.79-.53,2.74,2.74,0,0,1,1.64-.11,2.27,2.27,0,0,1,.58.23,3.61,3.61,0,0,1,.49.34,3.92,3.92,0,0,1,.31.28L135,95a4.69,4.69,0,0,0-1-.71A3.06,3.06,0,0,0,132.61,94Z"/><path class="cls-11" d="M138.66,102.91v-9.1h5.65v.87h-4.68v3.2h4v.87h-4V102h4.68v.87Z"/><path class="cls-11" d="M144.55,103.15h-6.13V93.57h6.13v1.34h-4.68v2.74h4V99h-4v2.81h4.68Zm-5.65-.48h5.17v-.39H139.4V98.52h4v-.4h-4V94.44h4.67V94H138.9Z"/><path class="cls-11" d="M152.23,101.48a2.31,2.31,0,0,1-.64.82,3,3,0,0,1-1,.51,4.37,4.37,0,0,1-1.29.18,4.82,4.82,0,0,1-1.75-.29,3.81,3.81,0,0,1-1.37-.92l.67-.66a3.32,3.32,0,0,0,1.14.78,3.88,3.88,0,0,0,1.34.22,2.55,2.55,0,0,0,1.57-.44,1.5,1.5,0,0,0,.58-1.25,1.88,1.88,0,0,0-.11-.65,1.21,1.21,0,0,0-.33-.49,1.26,1.26,0,0,0-.45-.27,4.08,4.08,0,0,0-.74-.16l-1.06-.17a3.34,3.34,0,0,1-1.67-.69,2.16,2.16,0,0,1-.69-1.7,2.6,2.6,0,0,1,.2-1.06,2.27,2.27,0,0,1,.58-.81,2.83,2.83,0,0,1,.92-.52,3.76,3.76,0,0,1,1.21-.18,4.21,4.21,0,0,1,1.5.24,3.81,3.81,0,0,1,1.21.76l-.63.62a3.14,3.14,0,0,0-.9-.58,3.31,3.31,0,0,0-1.22-.2,2.07,2.07,0,0,0-1.42.46,1.61,1.61,0,0,0-.5,1.23,1.33,1.33,0,0,0,.41,1,2.2,2.2,0,0,0,.55.31,4.5,4.5,0,0,0,.68.19l1,.15.57.11a3.88,3.88,0,0,1,.44.13,1.92,1.92,0,0,1,.35.18,1.66,1.66,0,0,1,.3.22,2.26,2.26,0,0,1,.77,1.8A2.52,2.52,0,0,1,152.23,101.48Z"/><path class="cls-11" d="M149.31,103.22a5.24,5.24,0,0,1-1.83-.29,4.22,4.22,0,0,1-1.46-1l-.16-.17,1-1,.17.17a3.08,3.08,0,0,0,1.05.73,3.66,3.66,0,0,0,1.26.2,2.32,2.32,0,0,0,1.43-.39,1.26,1.26,0,0,0,.48-1.06,1.48,1.48,0,0,0-.1-.57.82.82,0,0,0-.26-.39,1,1,0,0,0-.37-.23,4.76,4.76,0,0,0-.69-.15l-1.07-.17a3.51,3.51,0,0,1-1.79-.74,2.41,2.41,0,0,1-.77-1.88,2.91,2.91,0,0,1,.22-1.15,2.64,2.64,0,0,1,.64-.9,3,3,0,0,1,1-.56,4,4,0,0,1,1.29-.2,4.68,4.68,0,0,1,1.58.25,4.2,4.2,0,0,1,1.29.81l.19.17-1,1-.17-.15a2.69,2.69,0,0,0-.83-.54,3.08,3.08,0,0,0-1.13-.18,1.78,1.78,0,0,0-1.26.4,1.35,1.35,0,0,0-.42,1.05,1.09,1.09,0,0,0,.33.87,1.6,1.6,0,0,0,.47.26,3.58,3.58,0,0,0,.64.18l1,.16c.22,0,.42.07.59.11a4,4,0,0,1,.48.14,2.69,2.69,0,0,1,.38.19,2.18,2.18,0,0,1,.34.26,2.45,2.45,0,0,1,.84,2,2.8,2.8,0,0,1-.24,1.18,2.41,2.41,0,0,1-.71.9,3.1,3.1,0,0,1-1.07.55A4.52,4.52,0,0,1,149.31,103.22Zm-2.78-1.44a3.54,3.54,0,0,0,1.12.7,4.51,4.51,0,0,0,1.66.27,4.28,4.28,0,0,0,1.22-.17,3,3,0,0,0,.92-.47,2.16,2.16,0,0,0,.57-.73,2.32,2.32,0,0,0,.2-1,2,2,0,0,0-.68-1.62,2.34,2.34,0,0,0-.27-.2,1.57,1.57,0,0,0-.32-.15,2.85,2.85,0,0,0-.41-.13,5.53,5.53,0,0,0-.55-.1L149,98a3.58,3.58,0,0,1-.73-.2,2.22,2.22,0,0,1-.61-.35,1.55,1.55,0,0,1-.49-1.23,1.82,1.82,0,0,1,.57-1.4,2.25,2.25,0,0,1,1.58-.52,3.56,3.56,0,0,1,1.31.21,3.47,3.47,0,0,1,.8.48l.29-.29a3.43,3.43,0,0,0-1-.55,3.94,3.94,0,0,0-1.41-.22,3.37,3.37,0,0,0-1.14.17,2.49,2.49,0,0,0-.83.47,1.91,1.91,0,0,0-.52.73,2.49,2.49,0,0,0-.19,1,1.9,1.9,0,0,0,.61,1.52,3.12,3.12,0,0,0,1.56.63l1.06.17a4.52,4.52,0,0,1,.78.17,1.75,1.75,0,0,1,.53.32,1.56,1.56,0,0,1,.39.58,2.21,2.21,0,0,1,.12.74,1.71,1.71,0,0,1-.66,1.43,2.76,2.76,0,0,1-1.72.49,3.94,3.94,0,0,1-1.43-.23,3.31,3.31,0,0,1-1-.67Z"/><path class="cls-11" d="M157.8,94.68v8.23h-1V94.68H154.2v-.87h6.24v.87Z"/><path class="cls-11" d="M158,103.15h-1.45V94.91H154V93.57h6.71v1.34H158Zm-1-.48h.49V94.44h2.64V94h-5.77v.4h2.64Z"/><path class="cls-11" d="M162.78,102.91v-9.1h1v9.1Z"/><path class="cls-11" d="M164,103.15h-1.44V93.57H164Zm-1-.48h.5V94H163Z"/><path class="cls-11" d="M173,99.63a5.46,5.46,0,0,1-.1,1,2.9,2.9,0,0,1-.25.77,2.73,2.73,0,0,1-.49.67,3.17,3.17,0,0,1-1.05.7,3.36,3.36,0,0,1-1.28.25,3.18,3.18,0,0,1-2.33-.95,2.5,2.5,0,0,1-.49-.67,2.91,2.91,0,0,1-.26-.77,6.69,6.69,0,0,1-.09-1c0-.36,0-.79,0-1.27s0-.91,0-1.27a6.83,6.83,0,0,1,.09-1,3,3,0,0,1,.26-.77,2.46,2.46,0,0,1,.49-.66,3.33,3.33,0,0,1,4.66,0,2.69,2.69,0,0,1,.49.66,3,3,0,0,1,.25.77,5.58,5.58,0,0,1,.1,1c0,.36,0,.78,0,1.27S173,99.27,173,99.63Zm-1-2.48a6,6,0,0,0-.08-.84,2.15,2.15,0,0,0-.19-.59,1.92,1.92,0,0,0-.35-.47,2.12,2.12,0,0,0-.71-.48,2.31,2.31,0,0,0-.86-.17,2.27,2.27,0,0,0-.86.17,2.12,2.12,0,0,0-.71.48,1.92,1.92,0,0,0-.35.47,2.15,2.15,0,0,0-.19.59,6,6,0,0,0-.08.84c0,.33,0,.73,0,1.21s0,.88,0,1.21a6,6,0,0,0,.08.83,2.35,2.35,0,0,0,.19.6,2.21,2.21,0,0,0,1.06.94,2.11,2.11,0,0,0,.86.18,2.14,2.14,0,0,0,.86-.18,2.21,2.21,0,0,0,1.06-.94,2.35,2.35,0,0,0,.19-.6,6,6,0,0,0,.08-.83c0-.33,0-.74,0-1.21S172.06,97.48,172.05,97.15Z"/><path class="cls-11" d="M169.86,103.22a3.44,3.44,0,0,1-2.5-1,2.71,2.71,0,0,1-.53-.73,3.12,3.12,0,0,1-.28-.83,6.06,6.06,0,0,1-.1-1c0-.37,0-.79,0-1.28s0-.92,0-1.28a6.06,6.06,0,0,1,.1-1,3.07,3.07,0,0,1,.28-.84,2.67,2.67,0,0,1,.53-.72,3.41,3.41,0,0,1,2.5-1,3.37,3.37,0,0,1,2.49,1,2.51,2.51,0,0,1,.54.72,3.07,3.07,0,0,1,.28.84,7,7,0,0,1,.1,1c0,.36,0,.79,0,1.28s0,.91,0,1.28a7.34,7.34,0,0,1-.1,1,3.12,3.12,0,0,1-.28.83,2.75,2.75,0,0,1-.54.73,3.39,3.39,0,0,1-1.12.75A3.45,3.45,0,0,1,169.86,103.22Zm0-9.25a2.91,2.91,0,0,0-2.16.87,2.23,2.23,0,0,0-.45.61,3,3,0,0,0-.23.71,4.31,4.31,0,0,0-.09.93c0,.36,0,.78,0,1.27s0,.9,0,1.26a4.48,4.48,0,0,0,.09.94,3,3,0,0,0,.23.71,2.69,2.69,0,0,0,.45.6,2.92,2.92,0,0,0,2.16.88,3.08,3.08,0,0,0,1.19-.23,3,3,0,0,0,1-.65,2.69,2.69,0,0,0,.45-.6,3,3,0,0,0,.23-.71,6.25,6.25,0,0,0,.09-.94c0-.36,0-.78,0-1.26s0-.91,0-1.27a6.11,6.11,0,0,0-.09-.93,3,3,0,0,0-.23-.71,2.73,2.73,0,0,0-.45-.61A2.91,2.91,0,0,0,169.86,94Zm0,8.38a2.45,2.45,0,0,1-1-.19,2.24,2.24,0,0,1-.79-.53,2.66,2.66,0,0,1-.38-.52,2.13,2.13,0,0,1-.21-.66,5.31,5.31,0,0,1-.09-.88c0-.33,0-.73,0-1.21s0-.89,0-1.22a5.07,5.07,0,0,1,.09-.87,2,2,0,0,1,.21-.66,2.2,2.2,0,0,1,.39-.53,2.39,2.39,0,0,1,.78-.53,2.53,2.53,0,0,1,1.91,0,2.31,2.31,0,0,1,.79.54,2,2,0,0,1,.39.52,2.33,2.33,0,0,1,.21.66,5.07,5.07,0,0,1,.09.87c0,.33,0,.74,0,1.22s0,.88,0,1.21a5.31,5.31,0,0,1-.09.88,2.44,2.44,0,0,1-.21.66,2.36,2.36,0,0,1-.39.52,2.16,2.16,0,0,1-.79.53A2.37,2.37,0,0,1,169.86,102.35Zm0-7.51a2,2,0,0,0-.77.15,1.85,1.85,0,0,0-.94.84,2.06,2.06,0,0,0-.17.53,6.92,6.92,0,0,0-.08.8c0,.32,0,.72,0,1.2s0,.87,0,1.2a7.42,7.42,0,0,0,.08.8,2.06,2.06,0,0,0,.17.53,2.26,2.26,0,0,0,.3.41,2,2,0,0,0,2.18.43,1.9,1.9,0,0,0,.63-.43,1.92,1.92,0,0,0,.31-.41,2.2,2.2,0,0,0,.17-.53,5.67,5.67,0,0,0,.07-.8c0-.33,0-.73,0-1.2s0-.88,0-1.2a5.4,5.4,0,0,0-.07-.8,2.06,2.06,0,0,0-.17-.53,1.53,1.53,0,0,0-.31-.41,1.65,1.65,0,0,0-.63-.43A2.07,2.07,0,0,0,169.86,94.84Z"/><path class="cls-11" d="M181.78,102.91l-4.84-7.3v7.3h-1v-9.1h.92l4.83,7.27V93.81h1v9.1Z"/><path class="cls-11" d="M182.93,103.15h-1.28l-4.47-6.75v6.75h-1.45V93.57H177l4.47,6.72V93.57h1.44Zm-1-.48h.56V94H182v7.83L176.76,94h-.55v8.63h.49V94.82Z"/><path class="cls-11" d="M196.1,99.25a7,7,0,0,1-.08,1,4.47,4.47,0,0,1-.26,1,2.58,2.58,0,0,1-1.54,1.44,3.68,3.68,0,0,1-1.31.22h-3.12v-9.1h3.12a3.91,3.91,0,0,1,1.31.21,2.8,2.8,0,0,1,1,.63,2.62,2.62,0,0,1,.55.79,3.8,3.8,0,0,1,.26.89,6,6,0,0,1,.08,1c0,.33,0,.65,0,1S196.11,98.9,196.1,99.25Zm-1-1.83a5.19,5.19,0,0,0-.06-.8,2.85,2.85,0,0,0-.18-.71,1.65,1.65,0,0,0-.35-.57,2,2,0,0,0-.81-.52,3.1,3.1,0,0,0-1-.14h-2V102h2a3.1,3.1,0,0,0,1-.15,2,2,0,0,0,.81-.52,1.61,1.61,0,0,0,.35-.6,3.4,3.4,0,0,0,.18-.78,6.15,6.15,0,0,0,.06-.87c0-.29,0-.58,0-.87S195.13,97.69,195.13,97.42Z"/><path class="cls-11" d="M192.91,103.15h-3.36V93.57h3.36a4.09,4.09,0,0,1,1.39.23,3.15,3.15,0,0,1,1.08.68,2.7,2.7,0,0,1,.59.86,3.68,3.68,0,0,1,.28,1,6.64,6.64,0,0,1,.09,1c0,.33,0,.65,0,1s0,.64,0,1a7.6,7.6,0,0,1-.09,1.07,4.52,4.52,0,0,1-.27,1,2.85,2.85,0,0,1-1.68,1.57A3.86,3.86,0,0,1,192.91,103.15Zm-2.88-.48h2.88a3.59,3.59,0,0,0,1.22-.2,2.48,2.48,0,0,0,.91-.57,2.42,2.42,0,0,0,.5-.74,4.07,4.07,0,0,0,.24-.91,6.63,6.63,0,0,0,.08-1c0-.35,0-.68,0-1s0-.64,0-1a5.62,5.62,0,0,0-.08-.92,3.51,3.51,0,0,0-.24-.84,2.14,2.14,0,0,0-.5-.71,2.35,2.35,0,0,0-.91-.57,3.36,3.36,0,0,0-1.22-.21H190Zm2.72-.39h-2.22V94.44h2.22a3.21,3.21,0,0,1,1.05.16,2.26,2.26,0,0,1,.91.57,2,2,0,0,1,.4.66,3.15,3.15,0,0,1,.2.76c0,.26.05.53.06.82v1.72c0,.31,0,.61-.06.89a4.37,4.37,0,0,1-.19.83,2.14,2.14,0,0,1-.41.69,2.28,2.28,0,0,1-.91.58A3.5,3.5,0,0,1,192.75,102.28ZM191,101.8h1.75a2.94,2.94,0,0,0,.91-.13,1.81,1.81,0,0,0,.7-.46,1.47,1.47,0,0,0,.31-.52,4.1,4.1,0,0,0,.17-.73,7.3,7.3,0,0,0,0-.84c0-.3,0-.58,0-.86s0-.56,0-.84a5.94,5.94,0,0,0,0-.76,3.18,3.18,0,0,0-.17-.66,1.51,1.51,0,0,0-.31-.5,1.78,1.78,0,0,0-.7-.45,2.94,2.94,0,0,0-.91-.14H191Z"/><path class="cls-11" d="M199,102.91v-9.1h5.65v.87H200v3.2h4v.87h-4V102h4.68v.87Z"/><path class="cls-11" d="M204.92,103.15H198.8V93.57h6.12v1.34h-4.68v2.74h4V99h-4v2.81h4.68Zm-5.65-.48h5.18v-.39h-4.68V98.52h4v-.4h-4V94.44h4.68V94h-5.18Z"/><path class="cls-11" d="M216.4,102.91l-2.07-4h-2.19v4h-1v-9.1h3.49a3.23,3.23,0,0,1,1.09.17,2.25,2.25,0,0,1,.85.5,2.1,2.1,0,0,1,.56.8,2.74,2.74,0,0,1,.2,1.06,2.38,2.38,0,0,1-.55,1.63,2.51,2.51,0,0,1-1.43.81l2.16,4.13Zm-.52-7.82a2,2,0,0,0-1.31-.41h-2.43V98h2.43a2,2,0,0,0,1.31-.41,1.5,1.5,0,0,0,.51-1.25A1.54,1.54,0,0,0,215.88,95.09Z"/><path class="cls-11" d="M217.93,103.15h-1.68l-2.07-4h-1.8v4h-1.45V93.57h3.73a3.57,3.57,0,0,1,1.16.18,2.74,2.74,0,0,1,.94.55,2.51,2.51,0,0,1,.62.88,3.11,3.11,0,0,1,.22,1.16,2.63,2.63,0,0,1-.61,1.78,2.74,2.74,0,0,1-1.26.82Zm-1.39-.48h.6L215,98.61l.31-.06a2.24,2.24,0,0,0,1.3-.74,2.14,2.14,0,0,0,.49-1.47,2.47,2.47,0,0,0-.18-1,1.94,1.94,0,0,0-.5-.72,2.34,2.34,0,0,0-.77-.45,3.29,3.29,0,0,0-1-.16h-3.25v8.63h.49v-4h2.57Zm-2-4.42H211.9V94.44h2.67a2.24,2.24,0,0,1,1.46.47,2.05,2.05,0,0,1,0,2.88A2.3,2.3,0,0,1,214.57,98.25Zm-2.19-.48h2.19a1.75,1.75,0,0,0,1.16-.35,1.3,1.3,0,0,0,.42-1.07,1.33,1.33,0,0,0-.42-1.08,1.77,1.77,0,0,0-1.16-.36h-2.19Z"/><path class="cls-11" d="M220.2,102.91v-9.1h5.65v.87h-4.68v3.2h4v.87h-4V102h4.68v.87Z"/><path class="cls-11" d="M226.09,103.15H220V93.57h6.13v1.34h-4.68v2.74h4V99h-4v2.81h4.68Zm-5.66-.48h5.18v-.39h-4.68V98.52h4v-.4h-4V94.44h4.68V94h-5.18Z"/><path class="cls-11" d="M233.77,101.48a2.31,2.31,0,0,1-.64.82,3,3,0,0,1-1,.51,4.3,4.3,0,0,1-1.28.18,4.78,4.78,0,0,1-1.75-.29,3.72,3.72,0,0,1-1.37-.92l.66-.66a3.52,3.52,0,0,0,1.14.78,3.88,3.88,0,0,0,1.34.22,2.58,2.58,0,0,0,1.58-.44,1.49,1.49,0,0,0,.57-1.25,1.88,1.88,0,0,0-.11-.65,1.2,1.2,0,0,0-.32-.49,1.29,1.29,0,0,0-.46-.27,3.93,3.93,0,0,0-.73-.16l-1.06-.17a3.34,3.34,0,0,1-1.68-.69,2.16,2.16,0,0,1-.69-1.7,2.61,2.61,0,0,1,.21-1.06,2.15,2.15,0,0,1,.58-.81,2.78,2.78,0,0,1,.91-.52,3.82,3.82,0,0,1,1.22-.18,4.16,4.16,0,0,1,1.49.24,3.84,3.84,0,0,1,1.22.76l-.63.62a3.05,3.05,0,0,0-.91-.58,3.25,3.25,0,0,0-1.21-.2,2,2,0,0,0-1.42.46,1.61,1.61,0,0,0-.5,1.23,1.33,1.33,0,0,0,.41,1,2,2,0,0,0,.54.31,5,5,0,0,0,.69.19l1,.15.57.11a2.94,2.94,0,0,1,.44.13,2,2,0,0,1,.36.18,2.86,2.86,0,0,1,.3.22,2.25,2.25,0,0,1,.76,1.8A2.51,2.51,0,0,1,233.77,101.48Z"/><path class="cls-11" d="M230.85,103.22a5.3,5.3,0,0,1-1.84-.29,4.19,4.19,0,0,1-1.45-1l-.17-.17,1-1,.17.17a3.18,3.18,0,0,0,1.05.73,3.7,3.7,0,0,0,1.26.2,2.32,2.32,0,0,0,1.43-.39,1.24,1.24,0,0,0,.48-1.06,1.7,1.7,0,0,0-.09-.57,1,1,0,0,0-.26-.39,1,1,0,0,0-.38-.23,4.2,4.2,0,0,0-.69-.15l-1.06-.17a3.55,3.55,0,0,1-1.8-.74,2.41,2.41,0,0,1-.77-1.88,2.91,2.91,0,0,1,.23-1.15,2.51,2.51,0,0,1,.64-.9,2.9,2.9,0,0,1,1-.56,4,4,0,0,1,1.3-.2,4.72,4.72,0,0,1,1.58.25,4.16,4.16,0,0,1,1.28.81l.19.17-1,1-.17-.15A2.73,2.73,0,0,0,232,95a3,3,0,0,0-1.12-.18,1.77,1.77,0,0,0-1.26.4,1.35,1.35,0,0,0-.42,1.05,1.08,1.08,0,0,0,.32.87,1.54,1.54,0,0,0,.48.26,3.17,3.17,0,0,0,.64.18l1,.16c.22,0,.41.07.59.11a3.81,3.81,0,0,1,.47.14,3.54,3.54,0,0,1,.39.19,2.78,2.78,0,0,1,.34.26,2.48,2.48,0,0,1,.84,2,2.65,2.65,0,0,1-.25,1.18,2.39,2.39,0,0,1-.7.9,3.06,3.06,0,0,1-1.08.55A4.45,4.45,0,0,1,230.85,103.22Zm-2.78-1.44a3.5,3.5,0,0,0,1.11.7,4.6,4.6,0,0,0,1.67.27,4.16,4.16,0,0,0,1.21-.17,2.75,2.75,0,0,0,.92-.47,1.93,1.93,0,0,0,.57-.73,2.17,2.17,0,0,0,.21-1,2,2,0,0,0-.69-1.62,1.71,1.71,0,0,0-.27-.2,1.35,1.35,0,0,0-.32-.15,2.69,2.69,0,0,0-.4-.13c-.16,0-.35-.07-.55-.1l-1-.16a3.67,3.67,0,0,1-.74-.2,2.16,2.16,0,0,1-.6-.35,1.55,1.55,0,0,1-.5-1.23,1.79,1.79,0,0,1,.58-1.4,2.21,2.21,0,0,1,1.58-.52,3.54,3.54,0,0,1,1.3.21A3.75,3.75,0,0,1,233,95l.29-.29a3.43,3.43,0,0,0-.95-.55,4,4,0,0,0-1.41-.22,3.33,3.33,0,0,0-1.14.17,2.45,2.45,0,0,0-.84.47,2.16,2.16,0,0,0-.52.73,2.49,2.49,0,0,0-.18,1,1.9,1.9,0,0,0,.61,1.52,3.08,3.08,0,0,0,1.55.63l1.06.17a4.31,4.31,0,0,1,.78.17,1.54,1.54,0,0,1,.53.32,1.3,1.3,0,0,1,.39.58,2,2,0,0,1,.13.74,1.72,1.72,0,0,1-.67,1.43,2.75,2.75,0,0,1-1.72.49,3.85,3.85,0,0,1-1.42-.23,3.21,3.21,0,0,1-1-.67Z"/><path class="cls-11" d="M236.67,102.91v-9.1h5.65v.87h-4.68v3.2h4v.87h-4V102h4.68v.87Z"/><path class="cls-11" d="M242.55,103.15h-6.12V93.57h6.12v1.34h-4.68v2.74h4V99h-4v2.81h4.68Zm-5.65-.48h5.18v-.39H237.4V98.52h4v-.4h-4V94.44h4.68V94H236.9Z"/><path class="cls-11" d="M250.28,102.91l-.73-2.06h-4l-.73,2.06h-1l3.35-9.1H248l3.34,9.1Zm-2.7-7.71L245.87,100h3.4Z"/><path class="cls-11" d="M251.66,103.15h-1.55l-.73-2.06h-3.64l-.72,2.06h-1.55L247,93.57h1.15Zm-1.21-.48H251L247.81,94h-.48l-3.18,8.63h.53l.73-2.06h4.31Zm-.84-2.43h-4.08l2.06-5.75Zm-3.4-.47h2.73l-1.36-3.86Z"/><path class="cls-11" d="M259.42,101.15a2.8,2.8,0,0,1-.67,1,3,3,0,0,1-1,.63,3.62,3.62,0,0,1-2.54,0,3.08,3.08,0,0,1-1-.63,2.76,2.76,0,0,1-.65-1,3.17,3.17,0,0,1-.24-1.25V93.81h1v6a2.54,2.54,0,0,0,.16.94,1.82,1.82,0,0,0,.44.72,1.94,1.94,0,0,0,.69.46,2.46,2.46,0,0,0,.91.17,2.42,2.42,0,0,0,.91-.17,1.94,1.94,0,0,0,.69-.46,1.84,1.84,0,0,0,.45-.72,2.54,2.54,0,0,0,.16-.94v-6h1V99.9A3.16,3.16,0,0,1,259.42,101.15Z"/><path class="cls-11" d="M256.47,103.22a3.78,3.78,0,0,1-1.36-.24,3.25,3.25,0,0,1-1.08-.68,3.09,3.09,0,0,1-.71-1.06,3.41,3.41,0,0,1-.26-1.34V93.57h1.45v6.26a2.54,2.54,0,0,0,.14.86,1.68,1.68,0,0,0,.39.63,1.64,1.64,0,0,0,.61.41,2.32,2.32,0,0,0,1.64,0,1.64,1.64,0,0,0,.61-.41,1.84,1.84,0,0,0,.4-.63,2.32,2.32,0,0,0,.14-.86V93.57h1.45V99.9a3.4,3.4,0,0,1-.25,1.34,3.16,3.16,0,0,1-.72,1.06,3.4,3.4,0,0,1-1.09.68A3.78,3.78,0,0,1,256.47,103.22ZM253.54,94V99.9a3.11,3.11,0,0,0,.21,1.16,2.7,2.7,0,0,0,.61.9,2.82,2.82,0,0,0,.92.58,3.48,3.48,0,0,0,2.38,0,2.87,2.87,0,0,0,.93-.58,2.7,2.7,0,0,0,.61-.9,3.11,3.11,0,0,0,.22-1.16V94h-.5v5.79a2.86,2.86,0,0,1-.18,1,2.13,2.13,0,0,1-.5.8,2.3,2.3,0,0,1-.77.51,2.87,2.87,0,0,1-2,0,2.3,2.3,0,0,1-.77-.51,2.22,2.22,0,0,1-.5-.81,3,3,0,0,1-.17-1V94Z"/><path class="cls-11" d="M267.21,102.91,265,99.09l-2.23,3.82h-1.1l2.79-4.67-2.61-4.43H263l2,3.59,2-3.59h1.12l-2.62,4.43,2.82,4.67Z"/><path class="cls-11" d="M268.76,103.15h-1.69L265,99.56l-2.09,3.59h-1.65l2.92-4.91-2.74-4.67h1.68L265,96.91l1.88-3.34h1.68l-2.76,4.67Zm-1.41-.48h.57l-2.67-4.43,2.48-4.2h-.57L265,97.88,262.84,94h-.57l2.47,4.2-2.65,4.43h.55L265,98.61Z"/></svg>